<svg width="299" height="440" viewBox="0 0 299 440" fill="none" xmlns="http://www.w3.org/2000/svg">
<path fill='#FFC700' d="M167.671 4.39795C169.649 12.7939 173.386 49.9762 173.386 59.5716C173.386 64.969 172.507 69.9666 171.408 70.9661C170.309 72.1655 168.99 75.5639 168.55 78.9623C167.891 84.7595 168.111 84.9594 179.541 86.1588C185.916 86.9585 193.389 88.9575 196.467 90.7566C202.402 94.3549 202.841 94.9546 224.163 124.54C235.154 139.733 241.309 146.33 245.266 147.13C250.102 148.329 254.718 154.726 254.718 160.123C254.718 162.123 70.2928 162.322 54.6859 160.323C46.1131 159.124 44.7943 158.324 44.7943 153.926C44.7943 150.928 46.5528 148.129 49.6302 146.73C58.203 142.932 63.6984 137.334 72.9306 122.941C88.0978 98.9527 92.2743 94.155 101.726 89.957C106.782 87.7581 115.355 85.9589 120.411 85.9589H129.863L128.544 77.3631C125.027 54.574 124.807 45.5782 128.104 25.7877C130.083 13.9934 131.621 3.39842 131.621 2.19901C131.621 0.799667 137.556 4.57764e-05 149.206 4.57764e-05C165.693 4.57764e-05 166.792 0.199951 167.671 4.39795ZM178.442 106.349C184.816 130.338 182.618 132.936 152.504 136.735C140.414 138.334 119.971 140.333 106.782 141.133C93.813 141.732 82.6025 143.331 81.7232 144.531C79.9647 147.33 204.16 144.731 207.457 141.732C210.315 139.134 200.204 121.542 189.433 110.147C181.08 100.952 176.683 99.5524 178.442 106.349Z"/>
<path fill='#FFC700' d="M260.873 170.117C263.072 170.917 266.149 172.916 267.908 174.915C271.864 179.313 286.372 185.91 291.867 185.91C294.945 185.91 296.923 187.709 297.802 190.707C299.781 197.904 297.363 199.903 286.372 199.903C281.096 199.903 276.7 200.503 276.7 201.302C276.7 203.501 239.332 384.415 238.013 388.213C237.353 390.212 230.099 394.01 219.988 397.408C207.019 402.006 202.842 404.205 202.403 407.604C201.743 411.602 202.622 411.802 219.328 411.802C235.815 411.802 237.133 412.201 237.133 415.8C237.133 419.998 238.013 420.597 248.564 422.596C256.257 424.196 261.313 428.993 261.313 434.991V439.788H150.306H39.2998V433.991C39.2998 427.194 45.8943 421.797 54.0275 421.797C57.9841 421.797 59.0832 420.597 59.0832 416.799C59.0832 411.802 59.303 411.802 77.9873 411.802C96.232 411.802 96.6716 411.602 96.0122 407.204C95.5725 403.606 92.0555 401.806 78.8666 397.608C69.8542 394.81 61.721 391.211 60.8417 389.612C59.7426 388.013 50.2906 345.034 39.7395 293.858L20.3958 200.902L10.7239 199.903C3.46997 199.103 0.612366 197.904 0.172729 195.305C-0.926331 190.108 3.25018 186.509 11.823 185.11C15.7796 184.31 24.1326 180.712 30.0676 176.914L41.0583 170.117L148.988 169.518C208.557 169.118 258.895 169.518 260.873 170.117ZM53.368 182.311C52.4888 183.311 52.4888 184.51 53.368 185.31C55.786 187.509 239.332 187.309 244.827 185.11L249.223 183.511L244.827 181.712C239.332 179.713 55.786 180.312 53.368 182.311ZM110.96 211.897C89.1979 214.096 67.2164 215.895 61.9408 215.895C56.885 215.895 52.4887 216.495 52.4887 217.295C52.2689 223.891 73.1514 379.217 74.4703 380.417C75.3495 381.416 87.4394 381.616 101.068 380.816L126.127 379.217L134.48 371.421C140.195 365.824 142.393 362.425 141.294 360.026C136.238 349.232 133.381 339.636 132.282 330.64C131.183 321.245 131.842 318.846 141.074 303.653C150.746 287.861 151.186 287.261 152.505 292.859C153.164 296.257 156.242 304.453 159.319 311.45C166.133 327.442 165.913 331.84 158 348.632L151.625 362.425L159.539 370.621C163.935 375.219 168.551 379.417 169.87 380.217C171.189 381.016 183.938 381.816 198.006 381.816C223.065 381.816 223.945 381.616 225.044 377.218C227.022 368.822 243.728 240.883 244.168 228.889L244.827 217.095L216.251 214.496C200.424 213.097 180.641 211.098 172.288 210.098C163.715 209.298 155.362 208.299 153.604 208.099C151.845 208.099 132.501 209.698 110.96 211.897ZM92.0555 393.81C92.0555 394.81 94.6933 396.209 97.9905 397.009C101.508 397.608 114.696 400.807 127.446 404.205L150.746 410.202L169.211 403.606C188.994 396.409 187.675 393.61 166.573 397.608C150.966 400.607 139.975 400.207 117.334 396.009C93.814 391.411 92.0555 391.211 92.0555 393.81Z"/>
</svg>
